<svg xmlns="http://www.w3.org/2000/svg" version="1.1" xmlns:xlink="http://www.w3.org/1999/xlink" xmlns:svgjs="http://svgjs.dev/svgjs" width="1000" height="237" viewBox="0 0 1000 237"><g transform="matrix(1,0,0,1,-0.6060606060606233,-0.6170423078922767)"><svg viewBox="0 0 396 94" data-background-color="#000000" preserveAspectRatio="xMidYMid meet" height="237" width="1000" xmlns="http://www.w3.org/2000/svg" xmlns:xlink="http://www.w3.org/1999/xlink"><g id="tight-bounds" transform="matrix(1,0,0,1,0.2400000000000091,0.2447340799235178)"><svg viewBox="0 0 395.52 93.51053184015298" height="93.51053184015298" width="395.52"><g><svg viewBox="0 0 510.62705643802855 120.72463496028485" height="93.51053184015298" width="395.52"><g transform="matrix(1,0,0,1,115.10705643802856,37.30566450835387)"><svg viewBox="0 0 395.52 46.1133059435771" height="46.1133059435771" width="395.52"><g id="textblocktransform"><svg viewBox="0 0 395.52 46.1133059435771" height="46.1133059435771" width="395.52" id="textblock"><g><svg viewBox="0 0 395.52 46.1133059435771" height="46.1133059435771" width="395.52"><g transform="matrix(1,0,0,1,0,0)"><svg width="395.52" viewBox="5.25 -31.38 273.8 31.93" height="46.1133059435771" data-palette-color="#ffffff"><path d="M8.15 0L5.25 0 5.25-30.88 8.15-30.88 8.15 0ZM18.65 0L18.65-30.88 22.82-30.88 34.45-8.25 34.1-8.25 45.72-30.88 49.82-30.88 49.82 0 46.87 0 46.87-28.2 47.47-28.2 35.27-4.15 33.3-4.15 21.15-28.03 21.55-28.03 21.55 0 18.65 0ZM59.5 0L56.47 0 67.15-30.88 70.57-30.88 81.1 0 78.05 0 75.2-8.58 62.47-8.58 59.5 0ZM68.8-27.28L63.22-10.93 74.4-10.93 68.8-27.28ZM98.42 0.55L98.42 0.55Q94.79 0.55 91.77-1.33 88.74-3.2 86.96-6.69 85.17-10.18 85.17-15L85.17-15Q85.17-19.13 86.34-22.2 87.52-25.28 89.56-27.31 91.59-29.35 94.19-30.36 96.79-31.38 99.62-31.38L99.62-31.38Q102.87-31.38 105.47-30.09 108.07-28.8 110.19-26.03L110.19-26.03 107.67-24.78Q105.77-26.85 103.74-27.79 101.72-28.73 99.54-28.73L99.54-28.73Q96.52-28.73 93.93-27.08 91.34-25.43 89.78-22.35 88.22-19.28 88.22-15L88.22-15Q88.22-11.3 89.46-8.4 90.69-5.5 93.01-3.83 95.32-2.15 98.54-2.15L98.54-2.15Q100.92-2.15 102.81-3.25 104.69-4.35 105.78-6.65 106.87-8.95 106.87-12.55L106.87-12.55 108.02-12.55Q108.02-8.58 107.07-5.63 106.12-2.68 104.01-1.06 101.89 0.55 98.42 0.55ZM109.74 0L107.49 0 106.87-7.53 106.87-12.6 98.67-12.9 98.67-15 109.74-15 109.74 0ZM137.69 0L119.09 0 119.09-30.88 137.69-30.88 137.69-28.4 121.99-28.4 121.99-16.85 136.79-16.85 136.79-14.38 121.99-14.38 121.99-2.53 137.69-2.53 137.69 0ZM155.16-3L154.71-3 164.51-30.88 167.64-30.88 156.41 0 153.44 0 142.29-30.88 145.39-30.88 155.16-3ZM192.31 0L173.71 0 173.71-30.88 192.31-30.88 192.31-28.4 176.61-28.4 176.61-16.85 191.41-16.85 191.41-14.38 176.61-14.38 176.61-2.53 192.31-2.53 192.31 0ZM204.16 0L201.26 0 201.26-30.88 211.68-30.88Q216.83-30.88 219.42-28.39 222.01-25.9 222.01-21.9L222.01-21.9Q222.01-17.93 219.42-15.44 216.83-12.95 211.68-12.95L211.68-12.95 204.16-12.95 204.16 0ZM222.61 0L218.88 0 209.68-13.78 212.91-13.78 222.61 0ZM204.16-28.4L204.16-15.1 211.53-15.1Q215.21-15.1 217.12-16.96 219.03-18.82 219.03-21.8L219.03-21.8Q219.03-24.85 217.15-26.63 215.26-28.4 211.68-28.4L211.68-28.4 204.16-28.4ZM240.53 0.55L240.53 0.55Q237.51 0.55 234.98-0.56 232.46-1.68 230.93-3.81 229.41-5.95 229.41-9.03L229.41-9.03 232.21-9.03Q232.21-6.68 233.36-5.15 234.51-3.63 236.39-2.89 238.28-2.15 240.48-2.15L240.48-2.15Q243.01-2.15 244.81-2.99 246.61-3.83 247.57-5.18 248.53-6.53 248.53-8.05L248.53-8.05Q248.53-10.25 247.19-11.64 245.86-13.03 243.33-13.8L243.33-13.8 238.21-15.45Q234.23-16.82 232.23-18.55 230.23-20.28 230.23-23.43L230.23-23.43Q230.23-26.93 232.88-29.15 235.53-31.38 240.51-31.38L240.51-31.38Q244.98-31.38 247.54-29.33 250.11-27.28 250.51-23.95L250.51-23.95 247.63-23.95Q247.23-26.25 245.44-27.49 243.66-28.73 240.51-28.73L240.51-28.73Q237.11-28.73 235.24-27.19 233.38-25.65 233.38-23.28L233.38-23.28Q233.38-21.35 234.56-20.24 235.73-19.13 238.26-18.28L238.26-18.28 244.46-16.28Q247.71-15.28 249.69-13.31 251.68-11.35 251.68-8.1L251.68-8.1Q251.68-5.83 250.41-3.85 249.13-1.88 246.66-0.66 244.18 0.55 240.53 0.55ZM279.05 0L260.45 0 260.45-30.88 279.05-30.88 279.05-28.4 263.35-28.4 263.35-16.85 278.15-16.85 278.15-14.38 263.35-14.38 263.35-2.53 279.05-2.53 279.05 0Z" opacity="1" transform="matrix(1,0,0,1,0,0)" fill="#ffffff" class="wordmark-text-0" data-fill-palette-color="primary" id="text-0"></path></svg></g></svg></g></svg></g></svg></g><g><svg viewBox="0 0 104.22081162409266 120.72463496028485" height="120.72463496028485" width="104.22081162409266"><g><svg xmlns="http://www.w3.org/2000/svg" xmlns:xlink="http://www.w3.org/1999/xlink" version="1.1" x="0" y="0" viewBox="9.638 3.247 80.72399999999999 93.507" enable-background="new 0 0 100 100" xml:space="preserve" height="120.72463496028485" width="104.22081162409266" class="icon-icon-0" data-fill-palette-color="accent" id="icon-0"><g fill="#ffffff" data-fill-palette-color="accent"><g fill="#ffffff" data-fill-palette-color="accent"><polygon points="36.703,11.011 9.638,26.636 9.638,38.757 36.703,23.131 63.767,38.757 63.767,26.636   " fill="#ffffff" data-fill-palette-color="accent"></polygon></g><g fill="#ffffff" data-fill-palette-color="accent"><polygon points="63.298,89.092 36.233,73.467 36.233,61.348 63.298,76.973 90.362,61.348 90.362,73.467   " fill="#ffffff" data-fill-palette-color="accent"></polygon></g><g fill="#ffffff" data-fill-palette-color="accent"><polygon points="9.638,42.012 36.703,26.386 47.198,32.446 20.134,48.072 20.134,79.324 9.638,73.264   " fill="#ffffff" data-fill-palette-color="accent"></polygon></g><g fill="#ffffff" data-fill-palette-color="accent"><polygon points="77.083,18.872 50.018,3.247 39.522,9.307 66.586,24.932 66.586,56.184 77.083,50.124   " fill="#ffffff" data-fill-palette-color="accent"></polygon></g><g fill="#ffffff" data-fill-palette-color="accent"><polygon points="23.01,81.127 23.011,49.876 33.507,43.816 33.507,75.068 60.571,90.693 50.075,96.754   " fill="#ffffff" data-fill-palette-color="accent"></polygon></g><g fill="#ffffff" data-fill-palette-color="accent"><polygon points="90.362,58.092 90.362,26.84 79.866,20.78 79.866,52.031 52.802,67.658 63.298,73.719   " fill="#ffffff" data-fill-palette-color="accent"></polygon></g></g></svg></g></svg></g></svg></g><defs></defs></svg><rect width="395.52" height="93.51053184015298" fill="none" stroke="none" visibility="hidden"></rect></g></svg></g></svg>