<?xml version="1.0" encoding="UTF-8"?>
<!DOCTYPE svg PUBLIC "-//W3C//DTD SVG 1.1//EN" "http://www.w3.org/Graphics/SVG/1.1/DTD/svg11.dtd">
<svg xmlns="http://www.w3.org/2000/svg" version="1.1" width="211px" height="237px" style="shape-rendering:geometricPrecision; text-rendering:geometricPrecision; image-rendering:optimizeQuality; fill-rule:evenodd; clip-rule:evenodd" xmlns:xlink="http://www.w3.org/1999/xlink">
<g><path style="opacity:1" fill="#f5f5f5" d="M 101.5,-0.5 C 102.167,-0.5 102.833,-0.5 103.5,-0.5C 125.5,12.5 147.5,25.5 169.5,38.5C 170.833,65.5 170.833,92.5 169.5,119.5C 161.481,124.6 153.314,129.6 145,134.5C 144.667,134.167 144.333,133.833 144,133.5C 143.833,107.16 143.333,80.827 142.5,54.5C 119.837,41.8375 97.504,28.6708 75.5,15C 84.3954,10.059 93.062,4.89233 101.5,-0.5 Z"/></g>
<g><path style="opacity:1" fill="#f7f7f7" d="M 3.5,88.5 C 1.52565,78.8893 0.858987,68.8893 1.5,58.5C 23.708,45.141 46.208,32.141 69,19.5C 91.9144,32.084 114.581,45.084 137,58.5C 137.667,69.1667 137.667,79.8333 137,90.5C 114.581,77.084 91.9144,64.084 69,51.5C 47.2091,63.9769 25.3758,76.3102 3.5,88.5 Z"/></g>
<g><path style="opacity:0.694" fill="#a1a1a1" d="M 169.5,38.5 C 170.833,51.6497 171.499,65.1497 171.5,79C 171.499,92.8503 170.833,106.35 169.5,119.5C 170.833,92.5 170.833,65.5 169.5,38.5 Z"/></g>
<g><path style="opacity:0.77" fill="#ababab" d="M 180.5,45.5 C 178.674,71.1474 177.84,97.1474 178,123.5C 177.329,124.252 176.496,124.586 175.5,124.5C 175.783,123.711 176.283,123.044 177,122.5C 177.333,96.1667 177.667,69.8333 178,43.5C 178.995,44.0659 179.828,44.7326 180.5,45.5 Z"/></g>
<g><path style="opacity:1" fill="#f9f9f9" d="M 180.5,45.5 C 188.274,49.5562 195.941,53.8895 203.5,58.5C 204.833,85.5 204.833,112.5 203.5,139.5C 181.331,152.752 158.997,165.752 136.5,178.5C 127.335,173.419 118.335,168.085 109.5,162.5C 131.228,149.304 153.228,136.638 175.5,124.5C 176.496,124.586 177.329,124.252 178,123.5C 177.84,97.1474 178.674,71.1474 180.5,45.5 Z"/></g>
<g><path style="opacity:0.811" fill="#b0b0b0" d="M 1.5,58.5 C 0.858987,68.8893 1.52565,78.8893 3.5,88.5C 2.82803,89.2674 1.9947,89.9341 1,90.5C 0.174547,79.6586 0.341214,68.992 1.5,58.5 Z"/></g>
<g><path style="opacity:1" fill="#f9f9f9" d="M 3.5,178.5 C 3.21719,177.711 2.71719,177.044 2,176.5C 1.50003,150.169 1.33336,123.835 1.5,97.5C 23.1034,84.6929 44.7701,71.8596 66.5,59C 68.1667,58.3333 69.8333,58.3333 71.5,59C 79.9991,63.7484 88.3324,68.7484 96.5,74C 73.585,87.0403 50.7517,100.207 28,113.5C 27.6667,139.833 27.3333,166.167 27,192.5C 18.9965,187.97 11.1631,183.303 3.5,178.5 Z"/></g>
<g><path style="opacity:0.798" fill="#b1b1b1" d="M 1.5,97.5 C 1.33336,123.835 1.50003,150.169 2,176.5C 2.71719,177.044 3.21719,177.711 3.5,178.5C 2.5041,178.586 1.67076,178.252 1,177.5C 0.169802,150.664 0.336469,123.997 1.5,97.5 Z"/></g>
<g><path style="opacity:1" fill="#f9f9f9" d="M 63.5,182.5 C 85.7717,194.638 107.772,207.304 129.5,220.5C 121.08,226.257 112.414,231.59 103.5,236.5C 102.833,236.5 102.167,236.5 101.5,236.5C 79.5026,223.363 57.336,210.363 35,197.5C 34.1668,170.494 34.3335,143.494 35.5,116.5C 42.5674,111.967 49.9007,107.967 57.5,104.5C 58.4959,104.586 59.3292,104.252 60,103.5C 60.3333,129.5 60.6667,155.5 61,181.5C 61.6708,182.252 62.5041,182.586 63.5,182.5 Z"/></g>
<g><path style="opacity:0.8" fill="#aeaeae" d="M 63.5,182.5 C 62.5041,182.586 61.6708,182.252 61,181.5C 60.6667,155.5 60.3333,129.5 60,103.5C 59.3292,104.252 58.4959,104.586 57.5,104.5C 58.3149,103.163 59.4815,102.163 61,101.5C 61.3333,127.833 61.6667,154.167 62,180.5C 62.7172,181.044 63.2172,181.711 63.5,182.5 Z"/></g>
<g><path style="opacity:1" fill="#f7f7f7" d="M 68.5,177.5 C 68.1726,167.319 68.506,157.319 69.5,147.5C 91.8561,159.764 114.023,172.43 136,185.5C 158.418,172.374 180.918,159.374 203.5,146.5C 204.833,157.167 204.833,167.833 203.5,178.5C 180.918,191.374 158.418,204.374 136,217.5C 113.33,204.303 90.8301,190.97 68.5,177.5 Z"/></g>
<g><path style="opacity:0.779" fill="#acacac" d="M 69.5,147.5 C 68.506,157.319 68.1726,167.319 68.5,177.5C 67.1768,167.326 67.1768,156.993 68.5,146.5C 69.1067,146.624 69.44,146.957 69.5,147.5 Z"/></g>
</svg>
